<svg xmlns="http://www.w3.org/2000/svg" viewBox="0 0 220 132.24"><defs><style>.cls-1,.cls-2{fill:#fff;}.cls-1{fill-rule:evenodd;}</style></defs><title>Asset 2</title><g id="Layer_2" data-name="Layer 2"><g id="Layer_1-2" data-name="Layer 1"><path class="cls-1" d="M0,58.37H8.82V75.78a23.49,23.49,0,0,0,.67,6.78,5.91,5.91,0,0,0,2.17,3,6.19,6.19,0,0,0,3.67,1,6.44,6.44,0,0,0,3.7-1,6.21,6.21,0,0,0,2.26-3,23.57,23.57,0,0,0,.54-6.42V58.37h8.73V73.76q0,9.1-1.44,12.45a13.5,13.5,0,0,1-5.18,6.27,15.85,15.85,0,0,1-8.69,2.19A15.47,15.47,0,0,1,6,92.12,13.53,13.53,0,0,1,1,85Q0,81.84,0,73.51V58.37"/><path class="cls-1" d="M57.42,64.08l-5.35,5.36c-2.17-2.15-4.15-3.23-5.92-3.23a3.68,3.68,0,0,0-2.28.62,1.84,1.84,0,0,0-.82,1.54,1.88,1.88,0,0,0,.52,1.28,9.67,9.67,0,0,0,2.58,1.6l3.17,1.59q5,2.47,6.87,5a10.52,10.52,0,0,1-1.51,13.71q-3.36,3.07-9,3.08a14.37,14.37,0,0,1-12-5.9L38.93,83a12.17,12.17,0,0,0,3.56,2.87,7.88,7.88,0,0,0,3.63,1.1,4.29,4.29,0,0,0,2.75-.83,2.38,2.38,0,0,0,1.05-1.9q0-2-3.77-3.9l-2.91-1.46q-8.37-4.23-8.36-10.57a9.19,9.19,0,0,1,3.15-7,11.44,11.44,0,0,1,8.06-2.9,13.94,13.94,0,0,1,11.33,5.71"/><path class="cls-1" d="M88.89,61.29h8.89V93.78H88.89V90.13a17.6,17.6,0,0,1-5.22,3.48A15,15,0,0,1,78,94.67a16,16,0,0,1-11.87-5.19,17.84,17.84,0,0,1-5-12.9A18.27,18.27,0,0,1,66,63.48a15.6,15.6,0,0,1,11.77-5.11,15.21,15.21,0,0,1,6,1.18,16.34,16.34,0,0,1,5.17,3.52V61.29Zm-9.35,5.08a9.08,9.08,0,0,0-6.85,2.84,11.13,11.13,0,0,0,0,14.64,9.13,9.13,0,0,0,6.83,2.89,9.29,9.29,0,0,0,7-2.84,10.23,10.23,0,0,0,2.76-7.44,9.93,9.93,0,0,0-2.76-7.3,9.4,9.4,0,0,0-7-2.79Z"/><path class="cls-1" d="M109.66,46.27V62.39a16.61,16.61,0,0,1,5.21-3.6,15,15,0,0,1,6-1.2,15.51,15.51,0,0,1,11.79,5.22Q137.5,68,137.5,76.19a18.43,18.43,0,0,1-5,13.18,15.86,15.86,0,0,1-11.89,5.3,14.73,14.73,0,0,1-5.7-1.09A17.06,17.06,0,0,1,109.66,90v3.73h-8.83V46.27ZM119,65.76a9.28,9.28,0,0,0-7,2.85,10.24,10.24,0,0,0-2.77,7.46,10.55,10.55,0,0,0,2.77,7.6,9.21,9.21,0,0,0,7,2.9,9.09,9.09,0,0,0,6.86-2.95,10.51,10.51,0,0,0,2.78-7.52,10.41,10.41,0,0,0-2.73-7.44,9.12,9.12,0,0,0-6.91-2.9Z"/><rect class="cls-2" x="155.83" y="46.27" width="9.17" height="48.4"/><rect class="cls-2" x="171.11" y="46.27" width="9.17" height="48.4"/><path class="cls-1" d="M211.11,61.29H220V93.78h-8.89V90.13a17.6,17.6,0,0,1-5.22,3.48,15,15,0,0,1-5.68,1.06,16,16,0,0,1-11.87-5.19,17.84,17.84,0,0,1-5-12.9,18.27,18.27,0,0,1,4.85-13.1A15.61,15.61,0,0,1,200,58.37a15.21,15.21,0,0,1,6,1.18,16.23,16.23,0,0,1,5.17,3.52V61.29Zm-9.35,5.08a9.05,9.05,0,0,0-6.84,2.84,10.07,10.07,0,0,0-2.73,7.28A10.22,10.22,0,0,0,195,83.85a9.15,9.15,0,0,0,6.84,2.89,9.28,9.28,0,0,0,6.94-2.84,10.23,10.23,0,0,0,2.76-7.44,9.93,9.93,0,0,0-2.76-7.3,9.4,9.4,0,0,0-7-2.79Z"/><path class="cls-1" d="M145.14,64.42a4.55,4.55,0,0,0-4.58,4.51V94.67h9.16V68.93a4.55,4.55,0,0,0-4.58-4.51"/><path class="cls-2" d="M117.35,20.35a7.77,7.77,0,1,0,7.7,7.76,7.74,7.74,0,0,0-7.7-7.76"/><path class="cls-2" d="M127,38.24a4,4,0,1,0,4,4,4,4,0,0,0-4-4"/><path class="cls-2" d="M125.05,0a8.17,8.17,0,1,0,8.1,8.16A8.13,8.13,0,0,0,125.05,0"/><path class="cls-2" d="M140.49,16.33a10.82,10.82,0,1,0,10.73,10.82,10.78,10.78,0,0,0-10.73-10.82"/><path class="cls-2" d="M142.26,44a7.56,7.56,0,0,1,5.62,2.4,8.28,8.28,0,0,1,0,11.53,7.78,7.78,0,0,1-11.23-.05A8.11,8.11,0,0,1,134.33,52a7.78,7.78,0,0,1,2.33-5.67,7.61,7.61,0,0,1,5.6-2.35"/><path class="cls-2" d="M3.42,114.76a4.19,4.19,0,0,1,4.12-2.7c3.76,0,5.76,3.07,5.76,7.24,0,4.4-2.34,7.43-6,7.43a4.07,4.07,0,0,1-4.15-2.84l-.39,2.51H0V106.3H3.42Zm0,5.62c0,2.68,1.51,3.76,3,3.76,2,0,3.37-1.61,3.37-4.79s-1.26-4.61-3.32-4.61c-1.55,0-3.06,1.22-3.06,3.89Z"/><path class="cls-2" d="M25.07,112.4h3.34L23.26,127c-1.41,4-3.06,5.29-5.62,5.29a4.94,4.94,0,0,1-2.5-.67l.58-2.61a2.63,2.63,0,0,0,1.64.58c1.17,0,1.73-.55,2.48-2.64l-5.12-14.5h3.62L21.62,123h.06Z"/><path class="cls-2" d="M36.12,121.66l3.09-1.16A4.12,4.12,0,0,0,43.52,124c1.89,0,3.43-.83,3.43-2.61,0-4.06-10.05-1.34-10.05-8.29,0-3.45,3-5.6,6.68-5.6s6.17,1.53,6.73,4.84l-3.17.81a3.32,3.32,0,0,0-3.53-2.92c-2,0-3.23,1.06-3.23,2.59,0,4.09,10.07,1.22,10.07,8.37,0,3.62-3.2,5.57-7,5.57S36.81,124.84,36.12,121.66Z"/><path class="cls-2" d="M62.19,123.78a4.19,4.19,0,0,1-4.37,3,4.15,4.15,0,0,1-4.34-4.51V112.4h3.43v9c0,1.62.8,2.56,2.25,2.56S62,122.89,62,120.3v-7.9h3.45v14H62.61Z"/><path class="cls-2" d="M77.89,115.68a5.25,5.25,0,0,0-1.42-.19c-2,0-3.45,1.42-3.45,4.14v6.77H69.6v-14h2.89l.39,3.39a4.39,4.39,0,0,1,5.2-3.61Z"/><path class="cls-2" d="M86.29,122.69l3.42-10.29H93l-5.13,14H84.48l-5.15-14H83l3.29,10.29Z"/><path class="cls-2" d="M103.82,121.94l2.84.92c-.75,2.73-3.09,3.87-5.68,3.87-4,0-6.59-2.61-6.59-7.23s2.56-7.44,6.62-7.44c3.81,0,5.79,2.68,5.79,6.07a6.36,6.36,0,0,1-.28,1.87H97.67c.09,2.58,1.31,4.12,3.34,4.12A2.64,2.64,0,0,0,103.82,121.94Zm-.3-3.84c0-.22,0-.5,0-.69a2.59,2.59,0,0,0-2.59-2.87c-1.83,0-3,1.34-3.22,3.56Z"/><path class="cls-2" d="M118.54,112.4h3.34L116.73,127c-1.42,4-3.06,5.29-5.62,5.29a4.94,4.94,0,0,1-2.5-.67l.58-2.61a2.63,2.63,0,0,0,1.64.58c1.17,0,1.73-.55,2.48-2.64l-5.12-14.5h3.62L115.09,123h.06Z"/><path class="cls-2" d="M134.74,122.17h-2.26L128.06,113H128l0,3.53v9.86h-3.39V107.81h4l5.06,10.4h.06l5.06-10.4h3.82V126.4h-3.4v-9.86l0-3.53h-.06Z"/><path class="cls-2" d="M152.58,126.73c-4,0-6.66-2.64-6.66-7.35s2.7-7.32,6.66-7.32,6.65,2.65,6.65,7.32S156.55,126.73,152.58,126.73Zm0-12.11c-2.15,0-3.2,1.67-3.2,4.76s1.05,4.79,3.2,4.79,3.22-1.67,3.22-4.79S154.72,114.62,152.58,114.62Z"/><path class="cls-2" d="M165.68,115.1a4.62,4.62,0,0,1,4.57-3c2.56,0,4.36,1.62,4.36,4.54v9.8h-3.45v-8.85c0-1.56-.69-2.59-2.28-2.59s-3,1-3,3.59v7.85h-3.43v-14h2.81Z"/><path class="cls-2" d="M191.59,126.4h-4L183,120.22h-1v6.18h-3.43V106.3H182v11.39h1.08l4.15-5.29h3.87l-5.1,6.43Z"/><path class="cls-2" d="M201.94,121.94l2.84.92c-.75,2.73-3.09,3.87-5.68,3.87-4,0-6.59-2.61-6.59-7.23s2.56-7.44,6.62-7.44c3.81,0,5.79,2.68,5.79,6.07a6.36,6.36,0,0,1-.28,1.87h-8.85c.08,2.58,1.31,4.12,3.34,4.12A2.64,2.64,0,0,0,201.94,121.94Zm-.31-3.84a5.55,5.55,0,0,0,0-.69,2.59,2.59,0,0,0-2.59-2.87c-1.83,0-3,1.34-3.22,3.56Z"/><path class="cls-2" d="M216.66,112.4H220L214.85,127c-1.42,4-3.06,5.29-5.62,5.29a4.94,4.94,0,0,1-2.5-.67l.58-2.61a2.63,2.63,0,0,0,1.64.58c1.17,0,1.73-.55,2.48-2.64l-5.12-14.5h3.62L213.21,123h.06Z"/></g></g></svg>